<?xml version="1.0" encoding="UTF-8"?>
<svg width="512px" height="259px" viewBox="0 0 512 259" version="1.1" xmlns="http://www.w3.org/2000/svg" xmlns:xlink="http://www.w3.org/1999/xlink">
    <title>🍓brand/ single/ primary-base copy 5</title>
    <defs>
        <linearGradient x1="61.8648301%" y1="-36.2956939%" x2="61.8648301%" y2="100%" id="linearGradient-1">
            <stop stop-color="#FFC900" offset="0%"></stop>
            <stop stop-color="#FF9900" offset="100%"></stop>
        </linearGradient>
    </defs>
    <g id="🍓---Brand" stroke="none" stroke-width="1" fill="none" fill-rule="evenodd">
        <g id="android-chrome-512x512-copy" transform="translate(0.000000, -127.000000)" fill-rule="nonzero">
            <path d="M176.073813,242 L206.330973,242 C207.361906,242 208.350252,242.411238 209.076898,243.142546 L240.426846,274.693603 C241.933712,276.210135 244.384661,276.217972 245.901193,274.711106 C245.907046,274.70529 245.91288,274.699456 245.918696,274.693603 L277.268644,243.142546 C277.99529,242.411238 278.983636,242 280.014569,242 L310.271729,242 C312.409606,242 314.142697,243.733091 314.142697,245.870968 L314.142697,376.064516 C314.142697,377.133454 313.276151,378 312.207213,378 L274.761607,378 C272.623952,377.999432 270.890953,376.266687 270.890072,374.129032 L270.880208,306.857601 L270.880208,306.857601 L245.724302,328.906885 C244.264048,330.186805 242.081494,330.186805 240.62124,328.906885 L215.465334,306.857601 L215.465334,306.857601 L215.455471,374.129032 C215.454589,376.266687 213.72159,377.999432 211.583935,378 L176.073813,378 C173.935936,378 172.202845,376.266909 172.202845,374.129032 L172.202845,245.870968 C172.202845,243.733091 173.935936,242 176.073813,242 Z" id="Shape" fill="#FF9900"></path>
            <path d="M144.789386,152.593276 L158.378849,139.016077 C163.853111,133.562553 172.710748,133.563018 178.184438,139.017116 L241.244355,202.033339 C242.606038,203.391569 244.81079,203.391366 246.172224,202.032886 L281.524209,166.692416 C284.611805,163.611312 289.612147,163.610898 292.700252,166.691492 L309.860736,183.840719 C312.884816,186.856185 312.950731,191.712195 310.060475,194.811058 L309.867789,195.010629 L245.428011,259.407735 C244.066253,260.765679 241.861711,260.765748 240.499869,259.40789 L144.788772,163.762146 C141.763634,160.747739 141.697633,155.891751 144.587846,152.79285 L144.78053,152.593276 L144.789386,152.593276 Z" id="Path" fill="url(#linearGradient-1)"></path>
            <path d="M338.21651,242 L360.137051,242 C361.483615,242 362.733426,242.699775 363.437218,243.847779 L406.466169,314.035326 L406.466169,314.035326 L406.466169,245.870968 C406.466169,243.733091 408.19926,242 410.337137,242 L436.926187,242 C439.064064,242 440.797155,243.733091 440.797155,245.870968 L440.797155,374.129032 C440.797155,376.266909 439.064064,378 436.926187,378 L414.819837,378 C413.472402,378 412.221914,377.299327 411.518394,376.150136 L368.676528,306.168572 L368.676528,306.168572 L368.676528,374.129032 C368.676528,376.266909 366.943437,378 364.80556,378 L338.21651,378 C336.078633,378 334.345542,376.266909 334.345542,374.129032 L334.345542,245.870968 C334.345542,243.733091 336.078633,242 338.21651,242 Z" id="Shape" fill="#252F3E"></path>
            <path d="M464.870968,242 L492.129032,242 C494.266909,242 496,243.733091 496,245.870968 L496,374.129032 C496,376.266909 494.266909,378 492.129032,378 L464.870968,378 C462.733091,378 461,376.266909 461,374.129032 L461,245.870968 C461,243.733091 462.733091,242 464.870968,242 Z" id="Shape" fill="#252F3E"></path>
            <path d="M16,310 C16,300.674286 17.7809524,291.866667 21.3428571,283.577143 C24.9047619,275.287619 29.7619048,268.066667 35.9142857,261.914286 C42.0666667,255.761905 49.287619,250.904762 57.5771429,247.342857 C65.8666667,243.780952 74.6742857,242 84,242 C93.3257143,242 102.133333,243.780952 110.422857,247.342857 C118.712381,250.904762 125.933333,255.761905 132.085714,261.914286 C138.238095,268.066667 143.095238,275.287619 146.657143,283.577143 C150.219048,291.866667 152,300.674286 152,310 C152,319.325714 150.219048,328.133333 146.657143,336.422857 C143.095238,344.712381 138.238095,351.933333 132.085714,358.085714 C125.933333,364.238095 118.712381,369.095238 110.422857,372.657143 C102.133333,376.219048 93.3257143,378 84,378 C74.6742857,378 65.8666667,376.219048 57.5771429,372.657143 C49.287619,369.095238 42.0666667,364.238095 35.9142857,358.085714 C29.7619048,351.933333 24.9047619,344.712381 21.3428571,336.422857 C17.7809524,328.133333 16,319.325714 16,310 Z M34.2628571,310 C34.2628571,316.864762 35.5580952,323.308571 38.1485714,329.331429 C40.7390476,335.354286 44.3009524,340.632381 48.8342857,345.165714 C53.367619,349.699048 58.6457143,353.260952 64.6685714,355.851429 C70.6914286,358.441905 77.1352381,359.737143 84,359.737143 C90.8647619,359.737143 97.3085714,358.441905 103.331429,355.851429 C109.354286,353.260952 114.632381,349.699048 119.165714,345.165714 C123.699048,340.632381 127.260952,335.354286 129.851429,329.331429 C132.441905,323.308571 133.737143,316.864762 133.737143,310 C133.737143,303.135238 132.441905,296.691429 129.851429,290.668571 C127.260952,284.645714 123.699048,279.367619 119.165714,274.834286 C114.632381,270.300952 109.354286,266.739048 103.331429,264.148571 C97.3085714,261.558095 90.8647619,260.262857 84,260.262857 C77.1352381,260.262857 70.6914286,261.558095 64.6685714,264.148571 C58.6457143,266.739048 53.367619,270.300952 48.8342857,274.834286 C44.3009524,279.367619 40.7390476,284.645714 38.1485714,290.668571 C35.5580952,296.691429 34.2628571,303.135238 34.2628571,310 Z M56.8,310 C56.8,313.75619 57.512381,317.285714 58.9371429,320.588571 C60.3619048,323.891429 62.3047619,326.773333 64.7657143,329.234286 C67.2266667,331.695238 70.1085714,333.638095 73.4114286,335.062857 C76.7142857,336.487619 80.2438095,337.2 84,337.2 C87.7561905,337.2 91.2857143,336.487619 94.5885714,335.062857 C97.8914286,333.638095 100.773333,331.695238 103.234286,329.234286 C105.695238,326.773333 107.638095,323.891429 109.062857,320.588571 C110.487619,317.285714 111.2,313.75619 111.2,310 C111.2,306.24381 110.487619,302.714286 109.062857,299.411429 C107.638095,296.108571 105.695238,293.226667 103.234286,290.765714 C100.773333,288.304762 97.8914286,286.361905 94.5885714,284.937143 C91.2857143,283.512381 87.7561905,282.8 84,282.8 C80.2438095,282.8 76.7142857,283.512381 73.4114286,284.937143 C70.1085714,286.361905 67.2266667,288.304762 64.7657143,290.765714 C62.3047619,293.226667 60.3619048,296.108571 58.9371429,299.411429 C57.512381,302.714286 56.8,306.24381 56.8,310 Z" id="Shape" fill="#252F3E"></path>
        </g>
    </g>
</svg>